<?xml version="1.0" encoding="utf-8"?>
<!-- Generator: Adobe Illustrator 28.3.0, SVG Export Plug-In . SVG Version: 6.00 Build 0)  -->
<svg version="1.1" id="Layer_1" xmlns="http://www.w3.org/2000/svg" xmlns:xlink="http://www.w3.org/1999/xlink" x="0px" y="0px"
	 viewBox="0 0 871.7 149.9" style="enable-background:new 0 0 871.7 149.9;" xml:space="preserve">
<style type="text/css">
	.st0{fill:#DA1F43;}
	.st1{fill:#515663;}
</style>
<g id="Layer_2_00000141422617946636296330000006937744312870126260_">
	<g id="Layer_1-2">
		<path class="st0" d="M706,4.5h16.8v1.7l-40.2,54.7L703,88.4c4.8,6.7,10.6,13.1,17.2,13.1c4.2,0.1,8.3-1.3,11.5-4l5.6,10.9
			c-4.4,4.8-13.8,6.6-18.8,6.6c-16,0-24.7-13.2-29.8-20.8L667.5,65v48.3H652V4.5h15.5v53.2L706,4.5z"/>
		<path class="st0" d="M771.5,33.9C794,34,812.1,52.2,812,74.6s-18.3,40.5-40.7,40.4c-22.4-0.1-40.4-18.2-40.4-40.6
			C731,52.1,749.1,34,771.5,33.9z M771.5,101.7c14.3,0,25.8-12.1,25.8-27c0-15.1-11.5-27.4-25.8-27.4c-14.2,0-25.7,12.3-25.7,27.4
			C745.9,89.5,757.4,101.7,771.5,101.7z"/>
		<path class="st0" d="M856.1,55.3c-2.5-7-7.3-8.5-12.1-8.5c-7,0-11.5,4.3-11.5,10c0,5.1,4.7,7.8,9.3,9.3l11.2,3.7
			c14.8,4.5,18.7,13.7,18.7,21.9c0,14.8-12.9,23.3-28,23.3c-13.7,0-26.4-7-30-20.4l13.4-3.3c1.9,6.2,8.9,10.7,16.8,10.7
			c7.8,0,13.4-4.5,13.4-10.6c0-5.3-4.4-7.9-9.8-9.8L837,78.2c-12.4-3.7-19.1-10.4-19.1-21.1c0-13.2,10.3-23.2,25.7-23.2
			c10.9,0,21.6,4.5,26,18.5L856.1,55.3z"/>
		<path class="st1" d="M46.4,113.3V4.5h45.4c20.8,0,32.8,15.9,32.8,34.2c0,16.2-9.3,29.7-25.7,32.8c1.1,11.8,8.6,30.3,20.7,30.3
			c4.7,0,9.3-1.8,12.7-5l5.4,10.6c-5.1,5-12,7.8-19.1,7.6c-25.5,0-33.4-29.7-34.5-42.9H61.9v41.2L46.4,113.3z M88.5,59.7
			c12.4,0,19.9-8.7,19.9-21.1s-7.6-21.3-19.9-21.3H61.9v42.4H88.5z"/>
		<path class="st1" d="M175.2,33.9c22.4,0.1,40.5,18.3,40.4,40.7s-18.3,40.5-40.7,40.4c-22.4-0.1-40.4-18.2-40.4-40.6
			C134.7,52.1,152.8,34,175.2,33.9z M175.2,101.7c14.3,0,25.8-12.1,25.8-27c0-15.1-11.5-27.4-25.8-27.4c-14.1,0-25.6,12.3-25.6,27.4
			C149.6,89.5,161.1,101.7,175.2,101.7z"/>
		<path class="st1" d="M259.6,33.9c22.4,0.1,40.5,18.3,40.4,40.7C300,97,281.8,115.1,259.3,115c-22.4-0.1-40.4-18.2-40.4-40.6
			C219.1,52.1,237.2,34,259.6,33.9z M259.6,101.7c14.3,0,25.8-12.1,25.8-27c0-15.1-11.5-27.4-25.8-27.4c-14.1,0-25.6,12.2-25.6,27.3
			C234,89.5,245.5,101.7,259.6,101.7z"/>
		<path class="st1" d="M362.2,69.5c0-16.5-7.6-22.2-15.9-22.2c-8.1,0-22.1,5.4-22.1,30v36.1h-15.1V35.6h15.1v15.5
			c3.3-11.3,13.4-17.2,24.9-17.2c7.5,0,18.6,2.5,24.7,16.3c6.4-13.5,17.1-16.3,26.4-16.3c18.3,0,30,10.6,30,35.6v43.8h-15.1V69.5
			c0-16.5-7.6-22.2-15.9-22.2c-7.3,0-21.3,4.5-22.1,28.3v37.8h-15.1V69.5z"/>
		<path class="st1" d="M451.8,0c5.8,0,10.5,4.6,10.6,10.4c0,0.1,0,0.1,0,0.2c0,5.7-4.6,10.4-10.3,10.4c-0.1,0-0.2,0-0.3,0
			c-5.6,0.1-10.3-4.4-10.4-10c0-0.1,0-0.2,0-0.4c-0.1-5.7,4.4-10.5,10.1-10.6C451.6,0,451.7,0,451.8,0z M459.4,35.6h-15.1v77.7h15.1
			V35.6z"/>
		<path class="st1" d="M530.4,69.5c0-16.5-7.6-22.2-15.8-22.2s-25,5.4-25,30v36.1h-15.1V35.6h15.1v15.5c3.3-11,13.4-17.2,26.1-17.2
			c16.8,0,29.8,10.6,29.8,35.6v43.8h-15.1V69.5z"/>
		<path class="st1" d="M635.1,112.7c0,25.8-19.3,37.2-40.6,37.2c-16.5,0-25.8-5.1-33.3-11.2l6.1-11.8c7.8,6.8,17.3,9.8,27.2,9.8
			c15.1,0,25.5-8.7,25.5-25.3v-10.4c-7.5,10.6-17.7,14.1-28.1,14.1c-23.3,0-38.6-18.3-38.6-40.6s15.2-40.6,38.6-40.6
			c10.4,0,20.7,3.6,28.1,14.2V35.6h15.1V112.7z M593.7,47.3c-16.2,0-25.3,12.4-25.3,27.2s9.2,27.2,25.3,27.2
			c15.7,0,26.4-11.5,26.6-27.2C620.1,58.8,609.4,47.3,593.7,47.3z"/>
		<path class="st0" d="M29.4,16.8h5.7V5.4h-5.7C13.2,5.4,0,18.4,0,34.3C0,48,10.1,59.9,23.7,62.6V84H9.1v11.3h14.6v6.7H9.1v11.3
			h26.1V51.8h-5.7c-9.8,0.1-17.8-7.8-17.9-17.5C11.6,24.5,19.6,16.7,29.4,16.8z"/>
	</g>
</g>
</svg>
